<?xml version="1.0" encoding="utf-8"?>
<!-- Generator: Adobe Illustrator 21.1.0, SVG Export Plug-In . SVG Version: 6.00 Build 0)  -->
<svg version="1.1" id="Layer_1" xmlns="http://www.w3.org/2000/svg" xmlns:xlink="http://www.w3.org/1999/xlink" x="0px" y="0px"
	 viewBox="0 0 41.3 13.7" style="enable-background:new 0 0 41.3 13.7;" xml:space="preserve">
<style type="text/css">
	.st0{fill:#FFFFFF;stroke:#E6E7E8;stroke-width:0.3575;stroke-miterlimit:10;}
	.st1{fill:#FFFFFF;stroke:#E6E7E8;stroke-width:0.3306;stroke-miterlimit:10;}
	.st2{fill:#FFFFFF;}
	.st3{fill:#F7EC13;}
	.st4{fill:#58595B;}
	.st5{font-family:'MyriadPro-Regular';}
	.st6{font-size:4.69px;}
	.st7{fill:#3953A4;}
	.st8{fill:#6ABD45;}
</style>
<polygon class="st0" points="19.4,10.7 22.2,10.7 21,13.4 "/>
<path class="st1" d="M39,10.8H2.7C1.8,10.8,1,10.1,1,9.1V2.7C1,1.7,1.8,1,2.7,1H39c0.9,0,1.7,0.8,1.7,1.7v6.5
	C40.6,10.1,39.9,10.8,39,10.8z"/>
<rect x="19.8" y="10.6" class="st2" width="2.1" height="0.4"/>
<g>
	<circle class="st3" cx="5.6" cy="5.9" r="1.9"/>
	<text transform="matrix(1 0 0 1 8.7734 7.2749)" class="st4 st5 st6">Wel</text>
	<circle class="st7" cx="20.6" cy="5.9" r="1.9"/>
	<text transform="matrix(1 0 0 1 23.856 7.2749)" class="st4 st5 st6">3</text>
	<circle class="st8" cx="29.9" cy="5.9" r="1.9"/>
	<text transform="matrix(1 0 0 1 33.1421 7.2749)" class="st4 st5 st6">21</text>
</g>
</svg>
