<?xml version="1.0" encoding="utf-8"?>
<!-- Generator: Adobe Illustrator 21.1.0, SVG Export Plug-In . SVG Version: 6.00 Build 0)  -->
<svg version="1.1" id="Layer_1" xmlns="http://www.w3.org/2000/svg" xmlns:xlink="http://www.w3.org/1999/xlink" x="0px" y="0px"
	 viewBox="0 0 29 10.1" style="enable-background:new 0 0 29 10.1;" xml:space="preserve">
<style type="text/css">
	.st0{fill:#FFFFFF;stroke:#E6E7E8;stroke-width:0.2542;stroke-miterlimit:10;}
	.st1{fill:#FFFFFF;stroke:#E6E7E8;stroke-width:0.2351;stroke-miterlimit:10;}
	.st2{fill:#FFFFFF;}
	.st3{fill:#F7EC13;}
	.st4{fill:#58595B;}
	.st5{font-family:'MyriadPro-Regular';}
	.st6{font-size:3.3353px;}
	.st7{fill:#3953A4;}
	.st8{fill:#6ABD45;}
</style>
<polygon class="st0" points="13.5,7.4 15.5,7.4 14.6,9.3 "/>
<path class="st1" d="M26.9,7.5H2.1c-0.9,0-1.7-0.8-1.7-1.7V2.2c0-0.9,0.8-1.7,1.7-1.7h24.8c0.9,0,1.7,0.8,1.7,1.7v3.6
	C28.6,6.7,27.8,7.5,26.9,7.5z"/>
<rect x="13.8" y="7.3" class="st2" width="1.5" height="0.3"/>
<g>
	<circle class="st3" cx="3.7" cy="4" r="1.3"/>
	<text transform="matrix(1 0 0 1 5.9409 4.9781)" class="st4 st5 st6">Wel</text>
	<circle class="st7" cx="14.4" cy="4" r="1.3"/>
	<text transform="matrix(1 0 0 1 16.6665 4.9781)" class="st4 st5 st6">3</text>
	<circle class="st8" cx="21" cy="4" r="1.3"/>
	<text transform="matrix(1 0 0 1 23.271 4.9781)" class="st4 st5 st6">21</text>
</g>
</svg>
